<svg version="1.1" viewBox="0.0 0.0 960.0 540.0" fill="none" stroke="none" stroke-linecap="square" stroke-miterlimit="10" xmlns:xlink="http://www.w3.org/1999/xlink" xmlns="http://www.w3.org/2000/svg"><clipPath id="ge4646945f7_1_58.0"><path d="m0 0l960.0 0l0 540.0l-960.0 0l0 -540.0z" clip-rule="nonzero"/></clipPath><g clip-path="url(#ge4646945f7_1_58.0)"><path fill="#000000" d="m0 0l960.0 0l0 540.0l-960.0 0z" fill-rule="evenodd"/><path fill="#000000" fill-opacity="0.0" d="m216.56686 200.17061l478.86612 0l0 222.99211l-478.86612 0z" fill-rule="evenodd"/><path fill="#101010" d="m334.85138 309.95123q-7.84375 0 -12.8125 -4.1875q-4.96875 -4.1875 -4.96875 -11.0625q0 -4.21875 2.0 -7.796875q2.015625 -3.578125 5.5 -5.65625q3.484375 -2.09375 7.65625 -2.09375q4.40625 0 7.34375 2.375q2.9375 2.375 2.9375 6.359375q0 3.03125 -3.109375 7.015625q-2.140625 -2.859375 -3.21875 -3.34375q-1.078125 -0.484375 -2.296875 -0.484375q-2.0625 0 -3.34375 1.34375q-1.265625 1.34375 -1.265625 3.640625q0 2.328125 1.234375 3.65625q1.234375 1.34375 3.078125 1.34375q2.4375 0 4.40625 -2.453125q1.984375 -2.453125 3.15625 -7.9375l6.453125 -20.765625l0.390625 0.4375q-1.65625 4.515625 -5.84375 6.6875q-4.1875 2.171875 -9.140625 2.171875q-6.296875 0 -11.078125 -3.359375q-4.78125 -3.375 -7.265625 -9.421875q-2.46875 -6.0625 -2.46875 -13.859375q0 -11.203125 4.90625 -20.46875q4.921875 -9.28125 13.578125 -14.625q8.65625 -5.359375 19.0625 -5.359375q8.9375 0 14.421875 4.109375q5.5 4.09375 5.5 11.328125q0 4.90625 -2.578125 8.09375q-2.5625 3.171875 -6.828125 3.171875q-2.328125 0 -4.359375 -0.984375q-2.03125 -1.0 -4.65625 -4.546875q3.046875 -2.03125 4.046875 -4.15625q1.0 -2.125 1.0 -4.296875q0 -2.046875 -1.09375 -3.078125q-1.09375 -1.046875 -3.40625 -1.046875q-4.84375 0 -9.65625 4.59375q-4.796875 4.578125 -7.859375 12.28125q-3.046875 7.6875 -3.046875 16.15625q0 6.734375 1.890625 9.859375q1.90625 3.109375 5.140625 3.109375q4.21875 0 7.828125 -4.96875q3.625 -4.96875 6.328125 -16.75l15.59375 0.125l-7.640625 35.125q-3.21875 14.984375 -9.375 22.34375q-6.15625 7.375 -16.140625 7.375zm43.411957 -19.5625q-5.515625 0 -8.984375 -3.5q-3.453125 -3.515625 -3.453125 -10.1875q0 -2.640625 0.828125 -6.734375l6.953125 -32.859375l18.140625 0l-7.53125 35.515625q-0.25 1.265625 -0.25 2.328125q0 1.96875 0.90625 1.96875q1.796875 0 3.296875 -1.765625q1.515625 -1.78125 2.546875 -5.28125l6.921875 -32.765625l18.140625 0l-7.515625 35.578125q-0.34375 1.265625 -0.34375 2.65625q0 1.03125 0.296875 1.3125q0.296875 0.265625 1.671875 0.265625q1.796875 0 3.34375 -1.8125q1.5625 -1.828125 3.046875 -6.75l8.390625 0q-4.703125 13.796875 -10.546875 17.921875q-5.828125 4.109375 -11.828125 4.109375q-4.984375 0 -8.03125 -2.859375q-3.03125 -2.875 -2.671875 -3.65625q-0.8125 2.125 -4.921875 4.328125q-4.109375 2.1875 -8.40625 2.1875zm44.494476 -53.28125l18.140625 0l-1.421875 4.046875q-0.21875 -0.546875 2.78125 -2.296875q3.0 -1.75 6.65625 -1.75q4.0625 0 6.390625 2.796875q2.34375 2.78125 2.34375 6.53125q0 3.5625 -2.40625 6.34375q-2.390625 2.765625 -6.609375 2.765625q-3.171875 0 -4.34375 -1.609375q-1.15625 -1.609375 -1.625 -3.96875q-0.21875 -1.0 0.046875 -1.296875q0.265625 -0.296875 0.265625 0.453125q-1.484375 0 -2.578125 0.640625q-1.078125 0.625 -2.671875 2.09375l-8.0 37.953125l-18.140625 0l11.171875 -52.703125zm41.251648 53.28125q-5.515625 0 -8.984375 -3.5q-3.453125 -3.515625 -3.453125 -10.1875q0 -2.640625 0.828125 -6.734375l6.953125 -32.859375l18.140656 0l-7.5312805 35.5625q-0.25 0.96875 -0.25 1.984375q0 2.265625 0.90625 2.265625q1.796875 0 3.2969055 -1.765625q1.515625 -1.78125 2.546875 -5.28125l6.921875 -32.765625l18.140625 0l-7.515625 35.578125q-0.34375 1.265625 -0.34375 2.65625q0 1.03125 0.296875 1.3125q0.296875 0.265625 1.671875 0.265625q1.234375 0 1.75 -0.171875q0.515625 -0.171875 3.75 -1.65625q-0.734375 9.21875 -4.359375 12.265625q-3.609375 3.03125 -8.734375 3.03125q-4.90625 0 -7.9375 -2.96875q-3.03125 -2.96875 -2.625 -3.734375q-0.859375 2.3125 -4.9687805 4.515625q-4.109375 2.1875 -8.5 2.1875z" fill-rule="nonzero"/><path fill="#101010" d="m536.3815 290.2481q-8.953125 0 -14.359375 -4.78125q-5.40625 -4.78125 -5.40625 -14.765625q0 -7.890625 3.09375 -17.34375q3.09375 -9.453125 10.28125 -16.578125q7.203125 -7.140625 18.515625 -7.140625q15.03125 0 15.828125 14.40625q-0.75 0.015625 0.796875 -1.765625q1.546875 -1.78125 3.75 -5.4375l8.453125 0q-4.671875 9.328125 -7.171875 12.953125q-2.484375 3.609375 -5.578125 5.34375q-0.609375 9.46875 -4.375 17.6875q-3.765625 8.203125 -9.984375 12.8125q-6.21875 4.609375 -13.84375 4.609375zm4.359375 -14.375q2.6875 0 5.765625 -5.765625q3.09375 -5.78125 4.109375 -13.21875q-2.40625 -0.90625 -2.40625 -6.40625q0 -5.71875 2.96875 -7.09375q-0.078125 -1.328125 -0.5 -1.9375q-0.421875 -0.625 -1.296875 -0.625q-2.359375 0 -5.21875 4.53125q-2.859375 4.515625 -4.796875 11.59375q-1.921875 7.0625 -1.921875 12.34375q0 4.546875 0.671875 5.5625q0.6875 1.015625 2.625 1.015625z" fill-rule="nonzero"/><path fill="#101010" d="m563.5461 318.13873q-6.203125 0 -10.96875 -4.09375q-4.765625 -4.09375 -4.765625 -10.5q0 -5.6875 2.921875 -9.40625q2.921875 -3.703125 7.21875 -5.71875q4.28125 -2.03125 9.703125 -3.71875l13.421875 -63.34375q2.453125 -11.765625 8.84375 -16.453125q6.40625 -4.703125 14.09375 -4.703125q6.1875 0 10.953125 4.109375q4.765625 4.09375 4.765625 10.5q0 2.796875 -0.671875 7.0l-9.921875 0q0.4375 -4.953125 0.4375 -5.421875q0 -0.6875 -0.484375 -1.078125q-0.484375 -0.40625 -1.453125 -0.40625q-1.46875 0 -3.109375 1.53125q-1.640625 1.515625 -2.515625 5.890625l-1.3125 6.09375l8.15625 0l-1.625 9.265625l-8.453125 0l-12.625 59.3125q-2.46875 11.875 -8.6875 16.5q-6.21875 4.640625 -13.921875 4.640625zm-2.609375 -14.796875q2.640625 0 4.171875 -6.984375l0.546875 -2.484375q-1.609375 0.546875 -4.25 2.71875q-2.640625 2.171875 -2.640625 5.359375q0 0.296875 0.625 0.84375q0.625 0.546875 1.546875 0.546875z" fill-rule="nonzero"/><path fill="#101010" d="m422.58362 391.45435q-12.984375 0 -20.484375 -7.578125q-7.484375 -7.578125 -7.484375 -23.46875q0 -12.875 4.609375 -28.875q4.609375 -16.015625 13.828125 -27.84375q9.21875 -11.84375 22.40625 -11.84375q4.703125 0 14.078125 3.375q-10.734375 6.34375 -16.15625 17.171875q-5.40625 10.8125 -8.828125 24.484375q-3.40625 13.671875 -3.40625 24.09375q0 6.921875 1.4375 10.125q1.453125 3.203125 3.765625 3.203125q5.328125 0 11.5625 -9.046875q6.234375 -9.046875 10.515625 -23.609375q4.28125 -14.5625 4.28125 -28.0q0 -8.265625 -1.28125 -12.8125q-1.265625 -4.546875 -4.375 -6.65625q-3.109375 -2.125 -9.359375 -2.125q-10.125 0 -18.703125 4.109375q-8.578125 4.09375 -13.640625 11.59375q-5.0625 7.484375 -5.0625 17.375q0 3.21875 0.6875 4.96875q0.703125 1.75 0.703125 5.5q-10.90625 0 -15.4375 -3.546875q-4.515625 -3.5625 -4.515625 -11.125q0 -10.765625 8.5 -20.234375q8.515625 -9.484375 22.171875 -15.1875q13.65625 -5.703125 28.65625 -5.703125q18.875 0 27.484375 10.453125q8.6094055 10.453125 8.6094055 28.296875q0 15.453125 -5.7969055 32.265625q-5.796875 16.796875 -18.15625 28.71875q-12.359375 11.921875 -30.609375 11.921875zm83.60007 -63.28125l-2.828125 0q-3.609375 0 -4.796875 -0.328125q-1.171875 -0.34375 0 -0.34375q-2.46875 0 -0.46875 -0.4375q2.015625 -0.453125 2.015625 3.515625q0 4.984375 -3.171875 7.65625q-3.15625 2.671875 -7.296875 2.671875q-3.71875 0 -6.53125 -2.390625q-2.8125 -2.390625 -2.8125 -6.671875q0 -3.75 2.421875 -7.75q2.4375 -4.015625 6.796875 -6.65625q4.359375 -2.640625 9.921875 -2.640625l41.03122 0l-38.515594 61.640625q0.1875 -2.421875 2.59375 -2.125q4.578125 0.546875 7.21875 0.546875q3.6405945 0 5.1718445 1.140625q-1.28125 1.59375 -2.71875 0q-1.4375 -1.609375 -1.4375 -3.984375q0 -3.53125 2.984375 -6.21875q2.984375 -2.703125 7.75 -2.703125q4.421875 0 6.75 2.75q2.328125 2.734375 2.328125 6.875q0 4.171875 -2.5 8.328125q-2.5 4.15625 -7.078125 6.859375q-4.578125 2.703125 -10.421875 2.703125l-42.109344 0l35.703125 -62.4375z" fill-rule="nonzero"/><path fill="#000000" fill-opacity="0.0" d="m216.56686 190.50394l478.86612 0l0 222.99213l-478.86612 0z" fill-rule="evenodd"/><path fill="#1c1c1c" d="m334.85138 300.28458q-7.84375 0 -12.8125 -4.1875q-4.96875 -4.1875 -4.96875 -11.0625q0 -4.21875 2.0 -7.796875q2.015625 -3.578125 5.5 -5.65625q3.484375 -2.09375 7.65625 -2.09375q4.40625 0 7.34375 2.375q2.9375 2.375 2.9375 6.359375q0 3.03125 -3.109375 7.015625q-2.140625 -2.859375 -3.21875 -3.34375q-1.078125 -0.484375 -2.296875 -0.484375q-2.0625 0 -3.34375 1.34375q-1.265625 1.34375 -1.265625 3.640625q0 2.328125 1.234375 3.65625q1.234375 1.34375 3.078125 1.34375q2.4375 0 4.40625 -2.453125q1.984375 -2.453125 3.15625 -7.9375l6.453125 -20.765625l0.390625 0.4375q-1.65625 4.515625 -5.84375 6.6875q-4.1875 2.171875 -9.140625 2.171875q-6.296875 0 -11.078125 -3.359375q-4.78125 -3.375 -7.265625 -9.421875q-2.46875 -6.0625153 -2.46875 -13.85939q0 -11.203125 4.90625 -20.46875q4.921875 -9.28125 13.578125 -14.625q8.65625 -5.359375 19.0625 -5.359375q8.9375 0 14.421875 4.109375q5.5 4.09375 5.5 11.328125q0 4.90625 -2.578125 8.09375q-2.5625 3.171875 -6.828125 3.171875q-2.328125 0 -4.359375 -0.984375q-2.03125 -1.0 -4.65625 -4.546875q3.046875 -2.03125 4.046875 -4.15625q1.0 -2.125 1.0 -4.296875q0 -2.046875 -1.09375 -3.078125q-1.09375 -1.046875 -3.40625 -1.046875q-4.84375 0 -9.65625 4.59375q-4.796875 4.578125 -7.859375 12.28125q-3.046875 7.6875 -3.046875 16.15625q0 6.734375 1.890625 9.859375q1.90625 3.1093903 5.140625 3.1093903q4.21875 0 7.828125 -4.9687653q3.625 -4.96875 6.328125 -16.75l15.59375 0.125l-7.640625 35.125015q-3.21875 14.984375 -9.375 22.34375q-6.15625 7.375 -16.140625 7.375zm43.411957 -19.5625q-5.515625 0 -8.984375 -3.5q-3.453125 -3.515625 -3.453125 -10.1875q0 -2.640625 0.828125 -6.734375l6.953125 -32.85939l18.140625 0l-7.53125 35.51564q-0.25 1.265625 -0.25 2.328125q0 1.96875 0.90625 1.96875q1.796875 0 3.296875 -1.765625q1.515625 -1.78125 2.546875 -5.28125l6.921875 -32.76564l18.140625 0l-7.515625 35.57814q-0.34375 1.265625 -0.34375 2.65625q0 1.03125 0.296875 1.3125q0.296875 0.265625 1.671875 0.265625q1.796875 0 3.34375 -1.8125q1.5625 -1.828125 3.046875 -6.75l8.390625 0q-4.703125 13.796875 -10.546875 17.921875q-5.828125 4.109375 -11.828125 4.109375q-4.984375 0 -8.03125 -2.859375q-3.03125 -2.875 -2.671875 -3.65625q-0.8125 2.125 -4.921875 4.328125q-4.109375 2.1875 -8.40625 2.1875zm44.494476 -53.281265l18.140625 0l-1.421875 4.046875q-0.21875 -0.546875 2.78125 -2.296875q3.0 -1.75 6.65625 -1.75q4.0625 0 6.390625 2.796875q2.34375 2.78125 2.34375 6.53125q0 3.5625 -2.40625 6.34375q-2.390625 2.765625 -6.609375 2.765625q-3.171875 0 -4.34375 -1.609375q-1.15625 -1.609375 -1.625 -3.96875q-0.21875 -1.0 0.046875 -1.296875q0.265625 -0.296875 0.265625 0.453125q-1.484375 0 -2.578125 0.640625q-1.078125 0.625 -2.671875 2.09375l-8.0 37.95314l-18.140625 0l11.171875 -52.70314zm41.251648 53.281265q-5.515625 0 -8.984375 -3.5q-3.453125 -3.515625 -3.453125 -10.1875q0 -2.640625 0.828125 -6.734375l6.953125 -32.85939l18.140656 0l-7.5312805 35.562515q-0.25 0.96875 -0.25 1.984375q0 2.265625 0.90625 2.265625q1.796875 0 3.2969055 -1.765625q1.515625 -1.78125 2.546875 -5.28125l6.921875 -32.76564l18.140625 0l-7.515625 35.57814q-0.34375 1.265625 -0.34375 2.65625q0 1.03125 0.296875 1.3125q0.296875 0.265625 1.671875 0.265625q1.234375 0 1.75 -0.171875q0.515625 -0.171875 3.75 -1.65625q-0.734375 9.21875 -4.359375 12.265625q-3.609375 3.03125 -8.734375 3.03125q-4.90625 0 -7.9375 -2.96875q-3.03125 -2.96875 -2.625 -3.734375q-0.859375 2.3125 -4.9687805 4.515625q-4.109375 2.1875 -8.5 2.1875z" fill-rule="nonzero"/><path fill="#1c1c1c" d="m536.3815 280.58145q-8.953125 0 -14.359375 -4.78125q-5.40625 -4.78125 -5.40625 -14.765625q0 -7.8906403 3.09375 -17.343765q3.09375 -9.453125 10.28125 -16.578125q7.203125 -7.140625 18.515625 -7.140625q15.03125 0 15.828125 14.40625q-0.75 0.015625 0.796875 -1.765625q1.546875 -1.78125 3.75 -5.4375l8.453125 0q-4.671875 9.328125 -7.171875 12.953125q-2.484375 3.609375 -5.578125 5.34375q-0.609375 9.46875 -4.375 17.687515q-3.765625 8.203125 -9.984375 12.8125q-6.21875 4.609375 -13.84375 4.609375zm4.359375 -14.375q2.6875 0 5.765625 -5.765625q3.09375 -5.7812653 4.109375 -13.218765q-2.40625 -0.90625 -2.40625 -6.40625q0 -5.71875 2.96875 -7.09375q-0.078125 -1.328125 -0.5 -1.9375q-0.421875 -0.625 -1.296875 -0.625q-2.359375 0 -5.21875 4.53125q-2.859375 4.515625 -4.796875 11.59375q-1.921875 7.0625 -1.921875 12.343765q0 4.546875 0.671875 5.5625q0.6875 1.015625 2.625 1.015625z" fill-rule="nonzero"/><path fill="#1c1c1c" d="m563.5461 308.47208q-6.203125 0 -10.96875 -4.09375q-4.765625 -4.09375 -4.765625 -10.5q0 -5.6875 2.921875 -9.40625q2.921875 -3.703125 7.21875 -5.71875q4.28125 -2.03125 9.703125 -3.71875l13.421875 -63.343765q2.453125 -11.765625 8.84375 -16.453125q6.40625 -4.703125 14.09375 -4.703125q6.1875 0 10.953125 4.109375q4.765625 4.09375 4.765625 10.5q0 2.796875 -0.671875 7.0l-9.921875 0q0.4375 -4.953125 0.4375 -5.421875q0 -0.6875 -0.484375 -1.078125q-0.484375 -0.40625 -1.453125 -0.40625q-1.46875 0 -3.109375 1.53125q-1.640625 1.515625 -2.515625 5.890625l-1.3125 6.09375l8.15625 0l-1.625 9.265625l-8.453125 0l-12.625 59.312515q-2.46875 11.875 -8.6875 16.5q-6.21875 4.640625 -13.921875 4.640625zm-2.609375 -14.796875q2.640625 0 4.171875 -6.984375l0.546875 -2.484375q-1.609375 0.546875 -4.25 2.71875q-2.640625 2.171875 -2.640625 5.359375q0 0.296875 0.625 0.84375q0.625 0.546875 1.546875 0.546875z" fill-rule="nonzero"/><path fill="#1c1c1c" d="m422.58362 381.7877q-12.984375 0 -20.484375 -7.578125q-7.484375 -7.578125 -7.484375 -23.46875q0 -12.875 4.609375 -28.875q4.609375 -16.015625 13.828125 -27.84375q9.21875 -11.84375 22.40625 -11.84375q4.703125 0 14.078125 3.375q-10.734375 6.34375 -16.15625 17.171875q-5.40625 10.8125 -8.828125 24.484375q-3.40625 13.671875 -3.40625 24.09375q0 6.921875 1.4375 10.125q1.453125 3.203125 3.765625 3.203125q5.328125 0 11.5625 -9.046875q6.234375 -9.046875 10.515625 -23.609375q4.28125 -14.5625 4.28125 -28.0q0 -8.265625 -1.28125 -12.8125q-1.265625 -4.546875 -4.375 -6.65625q-3.109375 -2.125 -9.359375 -2.125q-10.125 0 -18.703125 4.109375q-8.578125 4.09375 -13.640625 11.59375q-5.0625 7.484375 -5.0625 17.375q0 3.21875 0.6875 4.96875q0.703125 1.75 0.703125 5.5q-10.90625 0 -15.4375 -3.546875q-4.515625 -3.5625 -4.515625 -11.125q0 -10.765625 8.5 -20.234375q8.515625 -9.484375 22.171875 -15.1875q13.65625 -5.703125 28.65625 -5.703125q18.875 0 27.484375 10.453125q8.6094055 10.453125 8.6094055 28.296875q0 15.453125 -5.7969055 32.265625q-5.796875 16.796875 -18.15625 28.71875q-12.359375 11.921875 -30.609375 11.921875zm83.60007 -63.28125l-2.828125 0q-3.609375 0 -4.796875 -0.328125q-1.171875 -0.34375 0 -0.34375q-2.46875 0 -0.46875 -0.4375q2.015625 -0.453125 2.015625 3.515625q0 4.984375 -3.171875 7.65625q-3.15625 2.671875 -7.296875 2.671875q-3.71875 0 -6.53125 -2.390625q-2.8125 -2.390625 -2.8125 -6.671875q0 -3.75 2.421875 -7.75q2.4375 -4.015625 6.796875 -6.65625q4.359375 -2.640625 9.921875 -2.640625l41.03122 0l-38.515594 61.640625q0.1875 -2.421875 2.59375 -2.125q4.578125 0.546875 7.21875 0.546875q3.6405945 0 5.1718445 1.140625q-1.28125 1.59375 -2.71875 0q-1.4375 -1.609375 -1.4375 -3.984375q0 -3.53125 2.984375 -6.21875q2.984375 -2.703125 7.75 -2.703125q4.421875 0 6.75 2.75q2.328125 2.734375 2.328125 6.875q0 4.171875 -2.5 8.328125q-2.5 4.15625 -7.078125 6.859375q-4.578125 2.703125 -10.421875 2.703125l-42.109344 0l35.703125 -62.4375z" fill-rule="nonzero"/><path fill="#000000" fill-opacity="0.0" d="m216.56686 182.50394l478.86612 0l0 222.99213l-478.86612 0z" fill-rule="evenodd"/><path fill="#27f700" d="m332.83575 292.28458q-7.109375 0 -11.4375 -3.65625q-4.328125 -3.640625 -4.328125 -9.578125q0 -3.6875 1.75 -6.8125q1.75 -3.109375 4.765625 -4.90625q3.015625 -1.8125 6.625 -1.8125q3.6875 0 5.96875 1.859375q2.296875 1.84375 2.296875 4.859375q0 2.34375 -1.0625 3.703125q-0.875 -1.171875 -2.390625 -1.859375q-1.5 -0.671875 -3.15625 -0.671875q-2.921875 0 -4.78125 1.9375q-1.84375 1.953125 -1.84375 5.0625q0 3.125 1.796875 5.0625q1.8125 1.953125 4.53125 1.953125q3.40625 0 5.828125 -3.015625q2.4375 -3.015625 3.703125 -8.953125l4.875 -21.51564l-0.390625 0q-2.625 3.7031403 -6.375 5.6562653q-3.75 1.9375 -8.21875 1.9375q-5.65625 0 -9.9375 -3.015625q-4.28125 -3.0156403 -6.578125 -8.60939q-2.28125 -5.59375 -2.28125 -13.0q0 -10.703125 4.671875 -19.515625q4.671875 -8.8125 12.84375 -13.859375q8.1875 -5.0625 18.015625 -5.0625q8.265625 0 13.078125 3.609375q4.828125 3.59375 4.828125 9.8125q0 4.1875 -2.046875 6.71875q-2.046875 2.53125 -5.34375 2.53125q-1.859375 0 -3.46875 -0.78125q-1.59375 -0.78125 -2.671875 -2.234375q1.75 -1.171875 2.96875 -3.75q1.21875 -2.578125 1.21875 -5.203125q0 -2.921875 -1.703125 -4.53125q-1.703125 -1.609375 -4.8125 -1.609375q-5.65625 0 -10.90625 5.015625q-5.25 5.015625 -8.46875 13.09375q-3.203125 8.078125 -3.203125 16.9375q0 7.296875 2.328125 11.140625q2.34375 3.84375 6.71875 3.84375q5.25 0 9.28125 -5.546875q4.046875 -5.546875 6.484375 -16.15625l11.484375 0.09375l-7.109375 32.70314q-3.109375 14.5 -8.8125 21.3125q-5.6875 6.8125 -14.734375 6.8125zm43.411957 -19.5625q-4.671875 0 -7.546875 -2.90625q-2.875 -2.921875 -2.875 -8.765625q0 -2.4375 0.78125 -6.3281403l6.625 -31.25l14.015625 0l-7.015625 33.093765q-0.296875 1.46875 -0.296875 2.734375q0 3.984375 2.921875 3.984375q2.734375 0 4.671875 -2.28125q1.953125 -2.296875 3.125 -6.2812653l6.609375 -31.25l14.015625 0l-7.0 33.093765q-0.390625 1.46875 -0.390625 3.125q0 1.9375 0.921875 2.765625q0.921875 0.828125 3.0625 0.828125q2.734375 0 4.71875 -2.328125q2.0 -2.34375 3.171875 -6.2343903l4.078125 0q-3.59375 10.51564 -8.90625 14.26564q-5.296875 3.734375 -10.65625 3.734375q-4.1875 0 -6.671875 -2.328125q-2.46875 -2.34375 -2.953125 -6.90625q-3.3125 5.34375 -6.96875 7.296875q-3.640625 1.9375 -7.4375 1.9375zm46.1351 -49.250015l14.015625 0l-1.265625 6.046875q3.296875 -2.921875 5.96875 -4.484375q2.6875 -1.5625 5.796875 -1.5625q3.125 0 4.921875 2.15625q1.796875 2.140625 1.796875 5.15625q0 2.8125 -1.859375 4.953125q-1.84375 2.140625 -5.140625 2.140625q-2.140625 0 -2.875 -1.015625q-0.734375 -1.015625 -1.125 -2.96875q-0.28125 -1.265625 -0.578125 -1.84375q-0.296875 -0.59375 -1.078125 -0.59375q-2.03125 0 -3.453125 0.828125q-1.40625 0.828125 -3.640625 2.875l-7.796875 36.98439l-14.015625 0l10.328125 -48.67189zm39.611023 49.250015q-4.671875 0 -7.546875 -2.90625q-2.875 -2.921875 -2.875 -8.765625q0 -2.4375 0.78125 -6.3281403l6.625 -31.25l14.0156555 0l-7.0156555 33.093765q-0.296875 1.171875 -0.296875 2.4375q0 4.28125 2.921875 4.28125q2.734375 0 4.6719055 -2.28125q1.953125 -2.296875 3.125 -6.2812653l6.609375 -31.25l14.015625 0l-7.0 33.093765q-0.390625 1.46875 -0.390625 3.125q0 1.9375 0.921875 2.765625q0.921875 0.828125 3.0625 0.828125q1.5625 0 2.28125 -0.234375q0.734375 -0.25 0.9375 -0.34375q-0.390625 4.953125 -3.40625 7.484375q-3.015625 2.53125 -7.40625 2.53125q-4.078125 0 -6.5625 -2.421875q-2.484375 -2.4375 -2.96875 -6.8125q-3.3125 5.34375 -6.9687805 7.296875q-3.640625 1.9375 -7.53125 1.9375z" fill-rule="nonzero"/><path fill="#27f700" d="m534.11584 272.58145q-8.09375 0 -12.796875 -4.15625q-4.703125 -4.15625 -4.703125 -13.125015q0 -7.53125 2.953125 -16.546875q2.953125 -9.03125 9.625 -15.640625q6.671875 -6.609375 17.046875 -6.609375q12.90625 0 13.890625 14.75q2.40625 -0.546875 4.265625 -2.671875q1.859375 -2.140625 3.5 -4.875l3.5 0q-2.953125 5.90625 -5.25 9.25q-2.296875 3.328125 -6.015625 5.40625q-0.65625 10.28125 -4.21875 18.04689q-3.546875 7.75 -9.234375 11.96875q-5.6875 4.203125 -12.5625 4.203125zm4.359375 -9.84375q4.046875 0 7.546875 -6.546875q3.5 -6.5625153 4.8125 -16.187515q-2.625 -0.984375 -2.625 -4.921875q0 -4.265625 3.0625 -5.6875q-0.21875 -3.5 -1.15625 -4.859375q-0.921875 -1.375 -3.0 -1.375q-3.609375 0 -6.890625 5.203125q-3.28125 5.1875 -5.296875 12.578125q-2.015625 7.375 -2.015625 12.953125q0 5.2343903 1.203125 7.0468903q1.203125 1.796875 4.359375 1.796875z" fill-rule="nonzero"/><path fill="#27f700" d="m561.1867 300.47208q-5.328125 0 -9.34375 -3.453125q-4.03125 -3.453125 -4.03125 -8.78125q0 -4.875 2.5 -8.046875q2.5 -3.171875 6.46875 -5.046875q3.953125 -1.859375 10.53125 -3.90625l13.71875 -64.70314q2.265625 -10.890625 7.984375 -15.078125q5.71875 -4.203125 12.640625 -4.203125q5.3125 0 9.328125 3.46875q4.03125 3.453125 4.03125 8.78125q0 2.609375 -0.328125 4.640625l-5.328125 0q0.21875 -2.484375 0.21875 -3.0625q0 -1.8125 -1.25 -2.828125q-1.234375 -1.015625 -3.046875 -1.015625q-2.390625 0 -4.65625 2.09375q-2.265625 2.09375 -3.28125 7.203125l-1.921875 8.9375l8.265625 0l-0.796875 4.546875l-8.375 0l-13.03125 61.187515q-2.28125 11.0 -7.828125 15.125q-5.546875 4.140625 -12.46875 4.140625zm-2.609375 -10.078125q4.546875 0 6.46875 -8.84375l1.46875 -6.578125q-6.0 2.046875 -9.234375 4.703125q-3.234375 2.671875 -3.234375 6.96875q0 1.359375 1.359375 2.546875q1.359375 1.203125 3.171875 1.203125z" fill-rule="nonzero"/><path fill="#27f700" d="m419.67737 373.7877q-11.765625 0 -18.421875 -6.71875q-6.640625 -6.71875 -6.640625 -21.421875q0 -12.46875 4.46875 -28.0q4.484375 -15.546875 13.09375 -26.59375q8.609375 -11.0625 20.375 -11.0625q4.203125 0 7.28125 1.109375q-6.15625 3.640625 -11.828125 14.984375q-5.671875 11.34375 -9.171875 25.34375q-3.5 14.0 -3.5 24.78125q0 7.546875 1.953125 11.890625q1.96875 4.34375 6.15625 4.34375q6.859375 0 13.65625 -9.859375q6.796875 -9.875 11.203125 -24.859375q4.40625 -14.984375 4.40625 -28.84375q0 -8.671875 -1.46875 -13.921875q-1.46875 -5.25 -5.390625 -7.90625q-3.921875 -2.671875 -11.0625 -2.671875q-10.78125 0 -20.015625 4.421875q-9.234375 4.40625 -14.765625 12.59375q-5.53125 8.1875 -5.53125 18.96875q0 3.78125 0.6875 5.53125q0.703125 1.75 0.703125 2.03125q-7.0 0 -10.578125 -2.796875q-3.5625 -2.8125 -3.5625 -8.96875q0 -9.65625 7.90625 -18.46875q7.921875 -8.828125 21.0 -14.28125q13.09375 -5.46875 27.515625 -5.46875q17.5 0 25.34375 9.53125q7.84375 9.515625 7.84375 26.3125q0 14.96875 -5.609375 31.21875q-5.59375 16.234375 -17.28125 27.515625q-11.6875 11.265625 -28.765625 11.265625zm88.61569 -63.28125l-7.84375 0q-3.921875 0 -5.8125 0.421875q-1.890625 0.421875 -1.890625 1.8125q0 0.28125 0.765625 0.640625q0.78125 0.34375 0.78125 2.4375q0 3.640625 -2.25 5.53125q-2.234375 1.890625 -5.3125 1.890625q-2.65625 0 -4.546875 -1.609375q-1.890625 -1.609375 -1.890625 -4.546875q0 -2.9375 2.03125 -6.296875q2.03125 -3.359375 5.734375 -5.59375q3.71875 -2.25 8.46875 -2.25l35.984344 0l-34.296844 59.21875q0.828125 0 3.078125 0.28125q4.75 0.5625 7.5625 0.5625q6.0155945 0 6.5780945 -2.796875q-1.265625 -0.140625 -1.96875 -0.90625q-0.6875 -0.78125 -0.6875 -2.046875q0 -2.234375 2.09375 -4.125q2.09375 -1.890625 5.734375 -1.890625q3.078125 0 4.625 1.828125q1.546875 1.8125 1.546875 4.890625q0 3.359375 -2.109375 6.859375q-2.09375 3.5 -6.015625 5.8125q-3.921875 2.3125 -8.9687195 2.3125l-37.09375 0l35.703125 -62.4375z" fill-rule="nonzero"/><path fill="#2fff08" d="m449.481 325.20834c-1.3543396 2.6732178 -4.185486 11.545044 -5.2099915 15.0c-1.0244751 3.4549255 -2.86438 3.5074158 -0.9370117 5.729645c1.9273987 2.222229 9.480316 7.673218 12.501312 7.603668c3.020996 -0.06954956 3.78479 -4.479431 5.624695 -8.020996c1.8398743 -3.5415344 4.3210754 -9.600159 5.414673 -13.2283325c1.0936279 -3.6281738 1.841217 -6.752411 1.1470032 -8.54068c-0.6942444 -1.788269 -2.7082214 -2.258545 -5.3123474 -2.1889954c-2.6040955 0.06958008 -8.107605 1.9986877 -10.312317 2.6063232c-2.2047424 0.607605 -1.5617065 -1.6338806 -2.9160156 1.0393677z" fill-rule="evenodd"/><g filter="url(#shadowFilter-ge4646945f7_1_58.1)"><use xlink:href="#ge4646945f7_1_58.1" transform="matrix(1.0 0.0 0.0 1.0 0.0 2.0)"/></g><defs><filter id="shadowFilter-ge4646945f7_1_58.1" filterUnits="userSpaceOnUse"><feGaussianBlur in="SourceAlpha" stdDeviation="16.5" result="blur"/><feComponentTransfer in="blur" color-interpolation-filters="sRGB"><feFuncR type="linear" slope="0" intercept="1.0"/><feFuncG type="linear" slope="0" intercept="0.47058824"/><feFuncB type="linear" slope="0" intercept="0.0"/><feFuncA type="linear" slope="1.0" intercept="0"/></feComponentTransfer></filter></defs><g id="ge4646945f7_1_58.1"><path fill="#271200" d="m531.7507 191.45934l14.236206 0l0 22.929138l-14.236206 0z" fill-rule="evenodd"/></g><g filter="url(#shadowFilter-ge4646945f7_1_58.2)"><use xlink:href="#ge4646945f7_1_58.2" transform="matrix(1.0 0.0 0.0 1.0 0.0 2.0)"/></g><defs><filter id="shadowFilter-ge4646945f7_1_58.2" filterUnits="userSpaceOnUse"><feGaussianBlur in="SourceAlpha" stdDeviation="8.0" result="blur"/><feComponentTransfer in="blur" color-interpolation-filters="sRGB"><feFuncR type="linear" slope="0" intercept="1.0"/><feFuncG type="linear" slope="0" intercept="1.0"/><feFuncB type="linear" slope="0" intercept="1.0"/><feFuncA type="linear" slope="0.76" intercept="0"/></feComponentTransfer></filter></defs><g id="ge4646945f7_1_58.2"><path fill="#2fff08" d="m402.57767 224.70573l7.968506 2.5196838l-11.433075 36.18898l-7.968506 -2.5196838z" fill-rule="evenodd"/></g><g filter="url(#shadowFilter-ge4646945f7_1_58.3)"><use xlink:href="#ge4646945f7_1_58.3" transform="matrix(1.0 0.0 0.0 1.0 -24.0 0.0)"/></g><defs><filter id="shadowFilter-ge4646945f7_1_58.3" filterUnits="userSpaceOnUse"><feGaussianBlur in="SourceAlpha" stdDeviation="9.5" result="blur"/><feComponentTransfer in="blur" color-interpolation-filters="sRGB"><feFuncR type="linear" slope="0" intercept="0.0"/><feFuncG type="linear" slope="0" intercept="0.0"/><feFuncB type="linear" slope="0" intercept="0.0"/><feFuncA type="linear" slope="0.46" intercept="0"/></feComponentTransfer></filter></defs><g id="ge4646945f7_1_58.3"><path fill="#2fff08" d="m396.20712 318.9998c-0.3123169 -0.8678894 -1.7353516 -2.2559204 -1.8739929 -5.207367c-0.13867188 -2.951416 0.17410278 -8.890198 1.0419922 -12.501312c0.8678894 -3.611084 2.2554626 -6.2489014 4.165344 -9.165344c1.9098816 -2.9164429 5.314514 -6.6316833 7.293976 -8.3333435c1.9794312 -1.7016602 2.8814392 -0.9737549 4.582672 -1.8766174c1.7012024 -0.90289307 2.6040955 -2.464569 5.6246643 -3.54068c3.0205688 -1.0761414 8.262451 -2.4991455 12.498688 -2.9160156c4.236206 -0.41690063 9.4461975 -0.661438 12.91864 0.41470337c3.4724426 1.0761108 6.2493286 3.4028625 7.9160156 6.041992c1.6666565 2.6390991 1.7366333 6.493866 2.0839844 9.792633c0.34732056 3.2987976 -0.41644287 7.0140076 0 10.0c0.41644287 2.986023 0.69332886 6.3534546 2.4986877 7.9160156c1.8053284 1.562561 5.7637634 1.5288696 8.333313 1.4593201c2.56958 -0.06954956 5.7296753 -0.52230835 7.084015 -1.876648c1.3543091 -1.3543091 1.1460876 -3.0551147 1.0419922 -6.2493286c-0.10412598 -3.1942444 -0.52056885 -8.923004 -1.666687 -12.916016c-1.1460876 -3.9930115 -2.6058655 -7.8473206 -5.209961 -11.041992c-2.604126 -3.1946716 -6.803589 -6.3552246 -10.414703 -8.125977c-3.6111145 -1.7707825 -8.196411 -2.0822449 -11.251953 -2.4986877c-3.0555725 -0.4164734 -3.6789246 -0.3123474 -7.0813904 0c-3.4024353 0.3123169 -8.853882 0.90200806 -13.333313 1.8739929c-4.4794617 0.9720154 -8.681976 1.7008057 -13.543304 3.9580078c-4.861328 2.2572327 -11.562134 6.112854 -15.624695 9.585297c-4.0625305 3.4724426 -6.875763 7.9510193 -8.750641 11.249359c-1.8748779 3.2983398 -2.1517944 5.8324585 -2.4986877 8.54068c-0.3468933 2.7082214 -0.34646606 5.520996 0.41732788 7.7086487c0.7637634 2.187683 2.25589 4.202118 4.165344 5.417328c1.9094543 1.2152405 6.076111 1.561676 7.2913513 1.8740234" fill-rule="evenodd"/></g><g filter="url(#shadowFilter-ge4646945f7_1_58.4)"><use xlink:href="#ge4646945f7_1_58.4" transform="matrix(1.0 0.0 0.0 1.0 -16.6893091863517 -6.742918635170593)"/></g><defs><filter id="shadowFilter-ge4646945f7_1_58.4" filterUnits="userSpaceOnUse"><feGaussianBlur in="SourceAlpha" stdDeviation="5.0" result="blur"/><feComponentTransfer in="blur" color-interpolation-filters="sRGB"><feFuncR type="linear" slope="0" intercept="0.0"/><feFuncG type="linear" slope="0" intercept="0.0"/><feFuncB type="linear" slope="0" intercept="0.0"/><feFuncA type="linear" slope="0.22" intercept="0"/></feComponentTransfer></filter></defs><g id="ge4646945f7_1_58.4"><path fill="#2fff08" d="m580.1662 214.3722c-2.777771 7.360901 -10.415527 51.80533 -9.165344 53.333344c1.2502441 1.5279846 15.139099 -35.276474 16.666687 -44.16536c1.5275879 -8.8888855 -4.7235107 -16.52887 -7.501343 -9.167984z" fill-rule="evenodd"/></g><g filter="url(#shadowFilter-ge4646945f7_1_58.5)"><use xlink:href="#ge4646945f7_1_58.5" transform="matrix(1.0 0.0 0.0 1.0 0.0 2.0)"/></g><defs><filter id="shadowFilter-ge4646945f7_1_58.5" filterUnits="userSpaceOnUse"><feGaussianBlur in="SourceAlpha" stdDeviation="23.0" result="blur"/><feComponentTransfer in="blur" color-interpolation-filters="sRGB"><feFuncR type="linear" slope="0" intercept="1.0"/><feFuncG type="linear" slope="0" intercept="1.0"/><feFuncB type="linear" slope="0" intercept="1.0"/><feFuncA type="linear" slope="1.0" intercept="0"/></feComponentTransfer></filter></defs><g id="ge4646945f7_1_58.5"><path fill="#2fff08" d="m409.33334 226.50131c0 0 -5.0 26.666672 -5.0 26.666672c0 0 5.0 -26.666672 5.0 -26.666672z" fill-rule="evenodd"/><path stroke="#ffffff" stroke-width="1.0" stroke-linejoin="round" stroke-linecap="butt" d="m409.33334 226.50131c0 0 -5.0 26.666672 -5.0 26.666672c0 0 5.0 -26.666672 5.0 -26.666672z" fill-rule="evenodd"/></g><defs><linearGradient id="ge4646945f7_1_58.6" gradientUnits="userSpaceOnUse" gradientTransform="matrix(-2.0971122486632905 -5.03660537697033 -5.03660537697033 2.0971122486632905 0.0 0.0)" spreadMethod="pad" x1="-60.44139557094291" y1="-64.49701992298296" x2="-60.44141436325084" y2="-59.46041454604769"><stop offset="0.0" stop-color="#ffc982"/><stop offset="1.0" stop-color="#f58f09"/></linearGradient></defs><path fill="url(#ge4646945f7_1_58.6)" d="m426.23105 179.72429l23.037079 -16.158783l-27.690857 4.9818573z" fill-rule="evenodd"/><defs><linearGradient id="ge4646945f7_1_58.7" gradientUnits="userSpaceOnUse" gradientTransform="matrix(-2.0786154101911882 -4.9921817682024585 -4.9921817682024585 2.0786154101911882 0.0 0.0)" spreadMethod="pad" x1="-60.97924153843544" y1="-64.98198211420267" x2="-60.97926049796928" y2="-59.98980034603621"><stop offset="0.0" stop-color="#c57000"/><stop offset="1.0" stop-color="#e07f00"/></linearGradient></defs><path fill="url(#ge4646945f7_1_58.7)" d="m426.2324 179.72374l22.731354 -15.637695l-25.663269 8.596146z" fill-rule="evenodd"/><defs><linearGradient id="ge4646945f7_1_58.8" gradientUnits="userSpaceOnUse" gradientTransform="matrix(4.567541356746859 -3.9152962042683805 -3.9152962042683805 -4.567541356746859 0.0 0.0)" spreadMethod="pad" x1="33.71556172662382" y1="-72.36046659759621" x2="33.71554468429671" y2="-67.79292524088115"><stop offset="0.0" stop-color="#ffc982"/><stop offset="1.0" stop-color="#f58f09"/></linearGradient></defs><path fill="url(#ge4646945f7_1_58.8)" d="m419.4266 177.6406l22.471954 16.92894l-13.279327 -24.808868z" fill-rule="evenodd"/><defs><linearGradient id="ge4646945f7_1_58.9" gradientUnits="userSpaceOnUse" gradientTransform="matrix(4.527252850425068 -3.8807609013141398 -3.8807609013141398 -4.527252850425068 0.0 0.0)" spreadMethod="pad" x1="34.01560009974291" y1="-72.9237221435726" x2="34.01558290575432" y2="-68.39646929318019"><stop offset="0.0" stop-color="#c57000"/><stop offset="1.0" stop-color="#e07f00"/></linearGradient></defs><path fill="url(#ge4646945f7_1_58.9)" d="m419.42755 177.6417l21.882141 16.798965l-16.090698 -21.763367z" fill-rule="evenodd"/><g filter="url(#shadowFilter-ge4646945f7_1_58.10)"><use xlink:href="#ge4646945f7_1_58.10" transform="matrix(1.0 0.0 0.0 1.0 0.0 2.0)"/></g><defs><filter id="shadowFilter-ge4646945f7_1_58.10" filterUnits="userSpaceOnUse"><feGaussianBlur in="SourceAlpha" stdDeviation="4.5" result="blur"/><feComponentTransfer in="blur" color-interpolation-filters="sRGB"><feFuncR type="linear" slope="0" intercept="0.0"/><feFuncG type="linear" slope="0" intercept="0.0"/><feFuncB type="linear" slope="0" intercept="0.0"/><feFuncA type="linear" slope="0.5" intercept="0"/></feComponentTransfer></filter></defs><g id="ge4646945f7_1_58.10"><defs><linearGradient id="ge4646945f7_1_58.11" gradientUnits="userSpaceOnUse" gradientTransform="matrix(2.2482936690400877 -10.778742774009864 10.778742774009864 2.2482936690400877 0.0 0.0)" spreadMethod="pad" x1="-8.07385355293123" y1="39.306792638336276" x2="-8.07389266117689" y2="50.08553541227519"><stop offset="0.0" stop-color="#ffc982"/><stop offset="1.0" stop-color="#f58f09"/></linearGradient></defs><path fill="url(#ge4646945f7_1_58.11)" d="m521.7067 199.63298l-115.002686 -29.884125l117.35669 18.598602z" fill-rule="evenodd"/></g><g filter="url(#shadowFilter-ge4646945f7_1_58.12)"><use xlink:href="#ge4646945f7_1_58.12" transform="matrix(1.0 0.0 0.0 1.0 0.0 2.0)"/></g><defs><filter id="shadowFilter-ge4646945f7_1_58.12" filterUnits="userSpaceOnUse"><feGaussianBlur in="SourceAlpha" stdDeviation="4.5" result="blur"/><feComponentTransfer in="blur" color-interpolation-filters="sRGB"><feFuncR type="linear" slope="0" intercept="0.0"/><feFuncG type="linear" slope="0" intercept="0.0"/><feFuncB type="linear" slope="0" intercept="0.0"/><feFuncA type="linear" slope="0.5" intercept="0"/></feComponentTransfer></filter></defs><g id="ge4646945f7_1_58.12"><defs><linearGradient id="ge4646945f7_1_58.13" gradientUnits="userSpaceOnUse" gradientTransform="matrix(2.22846368564681 -10.683674117182939 10.683674117182939 2.22846368564681 0.0 0.0)" spreadMethod="pad" x1="-8.145699665566418" y1="39.84696866194448" x2="-8.145738182382212" y2="50.53064277905799"><stop offset="0.0" stop-color="#c57000"/><stop offset="1.0" stop-color="#e07f00"/></linearGradient></defs><path fill="url(#ge4646945f7_1_58.13)" d="m521.70056 199.6317l-113.03302 -29.119675l114.51605 22.009705z" fill-rule="evenodd"/></g><g filter="url(#shadowFilter-ge4646945f7_1_58.14)"><use xlink:href="#ge4646945f7_1_58.14" transform="matrix(1.0 0.0 0.0 1.0 0.0 2.0)"/></g><defs><filter id="shadowFilter-ge4646945f7_1_58.14" filterUnits="userSpaceOnUse"><feGaussianBlur in="SourceAlpha" stdDeviation="16.0" result="blur"/><feComponentTransfer in="blur" color-interpolation-filters="sRGB"><feFuncR type="linear" slope="0" intercept="1.0"/><feFuncG type="linear" slope="0" intercept="0.6"/><feFuncB type="linear" slope="0" intercept="0.0"/><feFuncA type="linear" slope="0.62" intercept="0"/></feComponentTransfer></filter></defs><g id="ge4646945f7_1_58.14"><defs><linearGradient id="ge4646945f7_1_58.15" gradientUnits="userSpaceOnUse" gradientTransform="matrix(1.2302171753334832 -5.170439116153116 5.170439116153116 1.2302171753334832 0.0 0.0)" spreadMethod="pad" x1="-14.388583168819393" y1="79.8693201320781" x2="-14.388601495063227" y2="85.03975924819873"><stop offset="0.0" stop-color="#ffc982"/><stop offset="1.0" stop-color="#f58f09"/></linearGradient></defs><path fill="url(#ge4646945f7_1_58.15)" d="m421.99182 179.01266l-25.331055 -12.254593l28.132965 0.47846985z" fill-rule="evenodd"/></g><g filter="url(#shadowFilter-ge4646945f7_1_58.16)"><use xlink:href="#ge4646945f7_1_58.16" transform="matrix(1.0 0.0 0.0 1.0 0.0 2.0)"/></g><defs><filter id="shadowFilter-ge4646945f7_1_58.16" filterUnits="userSpaceOnUse"><feGaussianBlur in="SourceAlpha" stdDeviation="16.0" result="blur"/><feComponentTransfer in="blur" color-interpolation-filters="sRGB"><feFuncR type="linear" slope="0" intercept="1.0"/><feFuncG type="linear" slope="0" intercept="0.6"/><feFuncB type="linear" slope="0" intercept="0.0"/><feFuncA type="linear" slope="0.62" intercept="0"/></feComponentTransfer></filter></defs><g id="ge4646945f7_1_58.16"><defs><linearGradient id="ge4646945f7_1_58.17" gradientUnits="userSpaceOnUse" gradientTransform="matrix(1.219366510103678 -5.124835213322919 5.124835213322919 1.219366510103678 0.0 0.0)" spreadMethod="pad" x1="-14.5166215390328" y1="80.6713793103895" x2="-14.516640028354704" y2="85.79621452367905"><stop offset="0.0" stop-color="#c57000"/><stop offset="1.0" stop-color="#e07f00"/></linearGradient></defs><path fill="url(#ge4646945f7_1_58.17)" d="m421.9904 179.01233l-24.945679 -11.789337l26.710938 4.370285z" fill-rule="evenodd"/></g><g filter="url(#shadowFilter-ge4646945f7_1_58.18)"><use xlink:href="#ge4646945f7_1_58.18" transform="matrix(1.0 0.0 0.0 1.0 0.0 2.0)"/></g><defs><filter id="shadowFilter-ge4646945f7_1_58.18" filterUnits="userSpaceOnUse"><feGaussianBlur in="SourceAlpha" stdDeviation="16.0" result="blur"/><feComponentTransfer in="blur" color-interpolation-filters="sRGB"><feFuncR type="linear" slope="0" intercept="1.0"/><feFuncG type="linear" slope="0" intercept="0.6"/><feFuncB type="linear" slope="0" intercept="0.0"/><feFuncA type="linear" slope="0.62" intercept="0"/></feComponentTransfer></filter></defs><g id="ge4646945f7_1_58.18"><defs><linearGradient id="ge4646945f7_1_58.19" gradientUnits="userSpaceOnUse" gradientTransform="matrix(4.79827683372803 3.127099265783041 3.127099265783041 -4.79827683372803 0.0 0.0)" spreadMethod="pad" x1="77.56256929865185" y1="10.164394039593915" x2="77.5625478171446" y2="14.96267087327386"><stop offset="0.0" stop-color="#ffc982"/><stop offset="1.0" stop-color="#f58f09"/></linearGradient></defs><path fill="url(#ge4646945f7_1_58.19)" d="m418.95645 170.75082l-9.919617 26.337418l20.059998 -19.72879z" fill-rule="evenodd"/></g><g filter="url(#shadowFilter-ge4646945f7_1_58.20)"><use xlink:href="#ge4646945f7_1_58.20" transform="matrix(1.0 0.0 0.0 1.0 0.0 2.0)"/></g><defs><filter id="shadowFilter-ge4646945f7_1_58.20" filterUnits="userSpaceOnUse"><feGaussianBlur in="SourceAlpha" stdDeviation="16.0" result="blur"/><feComponentTransfer in="blur" color-interpolation-filters="sRGB"><feFuncR type="linear" slope="0" intercept="1.0"/><feFuncG type="linear" slope="0" intercept="0.6"/><feFuncB type="linear" slope="0" intercept="0.0"/><feFuncA type="linear" slope="0.62" intercept="0"/></feComponentTransfer></filter></defs><g id="ge4646945f7_1_58.20"><defs><linearGradient id="ge4646945f7_1_58.21" gradientUnits="userSpaceOnUse" gradientTransform="matrix(4.755955561261387 3.099517942218849 3.099517942218849 -4.755955561261387 0.0 0.0)" spreadMethod="pad" x1="78.25276638519234" y1="10.339605445188573" x2="78.25274471253009" y2="15.095561006400578"><stop offset="0.0" stop-color="#c57000"/><stop offset="1.0" stop-color="#e07f00"/></linearGradient></defs><path fill="url(#ge4646945f7_1_58.21)" d="m418.95566 170.75204l-9.960724 25.734558l16.349243 -21.571075z" fill-rule="evenodd"/></g><g filter="url(#shadowFilter-ge4646945f7_1_58.22)"><use xlink:href="#ge4646945f7_1_58.22" transform="matrix(1.0 0.0 0.0 1.0 0.0 2.0)"/></g><defs><filter id="shadowFilter-ge4646945f7_1_58.22" filterUnits="userSpaceOnUse"><feGaussianBlur in="SourceAlpha" stdDeviation="16.0" result="blur"/><feComponentTransfer in="blur" color-interpolation-filters="sRGB"><feFuncR type="linear" slope="0" intercept="1.0"/><feFuncG type="linear" slope="0" intercept="0.6"/><feFuncB type="linear" slope="0" intercept="0.0"/><feFuncA type="linear" slope="0.62" intercept="0"/></feComponentTransfer></filter></defs><g id="ge4646945f7_1_58.22"><defs><linearGradient id="ge4646945f7_1_58.23" gradientUnits="userSpaceOnUse" gradientTransform="matrix(-5.233684282602785 0.42123611941678973 0.42123611941678973 5.233684282602785 0.0 0.0)" spreadMethod="pad" x1="-78.98204779759011" y1="34.62778942069728" x2="-78.98206341882626" y2="39.86147370327675"><stop offset="0.0" stop-color="#ffc982"/><stop offset="1.0" stop-color="#f58f09"/></linearGradient></defs><path fill="url(#ge4646945f7_1_58.23)" d="m430.1582 175.35226l-8.238037 -26.905792l-3.8256226 27.87674z" fill-rule="evenodd"/></g><g filter="url(#shadowFilter-ge4646945f7_1_58.24)"><use xlink:href="#ge4646945f7_1_58.24" transform="matrix(1.0 0.0 0.0 1.0 0.0 2.0)"/></g><defs><filter id="shadowFilter-ge4646945f7_1_58.24" filterUnits="userSpaceOnUse"><feGaussianBlur in="SourceAlpha" stdDeviation="16.0" result="blur"/><feComponentTransfer in="blur" color-interpolation-filters="sRGB"><feFuncR type="linear" slope="0" intercept="1.0"/><feFuncG type="linear" slope="0" intercept="0.6"/><feFuncB type="linear" slope="0" intercept="0.0"/><feFuncA type="linear" slope="0.62" intercept="0"/></feComponentTransfer></filter></defs><g id="ge4646945f7_1_58.24"><defs><linearGradient id="ge4646945f7_1_58.25" gradientUnits="userSpaceOnUse" gradientTransform="matrix(-5.187523034112115 0.41752080403981995 0.41752080403981995 5.187523034112115 0.0 0.0)" spreadMethod="pad" x1="-79.68487068893342" y1="35.02837882349336" x2="-79.68488644917535" y2="40.215901857581535"><stop offset="0.0" stop-color="#c57000"/><stop offset="1.0" stop-color="#e07f00"/></linearGradient></defs><path fill="url(#ge4646945f7_1_58.25)" d="m430.15808 175.35081l-7.837219 -26.453903l0.23703003 27.065613z" fill-rule="evenodd"/></g><defs><linearGradient id="ge4646945f7_1_58.26" gradientUnits="userSpaceOnUse" gradientTransform="matrix(23.585721853717956 0.0 0.0 23.585721853717956 0.0 0.0)" spreadMethod="pad" x1="36.30883481334546" y1="12.219921696700807" x2="19.63136396518112" y2="-4.457855177618422"><stop offset="0.0" stop-color="#000000"/><stop offset="0.06" stop-color="#000000"/><stop offset="0.6" stop-color="#000000" stop-opacity="0.0"/><stop offset="0.6000001" stop-color="#ffffff" stop-opacity="0.0"/><stop offset="1.0" stop-color="#ffffff" stop-opacity="0.0"/></linearGradient></defs><path fill="url(#ge4646945f7_1_58.26)" d="m238.2126 119.661415l449.60632 0l0 337.1024l-449.60632 0z" fill-rule="evenodd"/><path fill="#000000" d="m254.7126 295.1326l0 -1.21875q-0.90625 1.4375 -2.703125 1.4375q-1.15625 0 -2.125 -0.640625q-0.96875 -0.640625 -1.5 -1.78125q-0.53125 -1.140625 -0.53125 -2.625q0 -1.453125 0.484375 -2.625q0.484375 -1.1875 1.4375 -1.8125q0.96875 -0.625 2.171875 -0.625q0.875 0 1.546875 0.375q0.6875 0.359375 1.109375 0.953125l0 -4.796875l1.6406403 0l0 13.359375l-1.5312653 0zm-5.171875 -4.828125q0 1.859375 0.78125 2.78125q0.78125 0.921875 1.84375 0.921875q1.078125 0 1.828125 -0.875q0.75 -0.890625 0.75 -2.6875q0 -1.984375 -0.765625 -2.90625q-0.765625 -0.9375 -1.890625 -0.9375q-1.078125 0 -1.8125 0.890625q-0.734375 0.890625 -0.734375 2.8125z" fill-rule="nonzero"/></g></svg>